<svg xmlns="http://www.w3.org/2000/svg" viewBox="0 0 278752.00 356463.00" width="100%" height="100%">
  <path d="M 106762.34 122221.68 C 103721.00 122221.68 101471.68 124471.01 101471.68 127480.67 L 101471.68 133151.50 C 101471.68 135780.99 103721.00 138062.00 106762.34 138062.00 C 109391.83 138062.00 112021.32 135780.99 112021.32 133151.50 L 112021.32 127480.67 C 112021.32 124471.01 109391.83 122221.68 106762.34 122221.68 Z" fill="#FFFFFF" stroke="#FFFFFF" stroke-width="1.5" />
  <path d="M 173131.50 122221.68 C 170502.09 122221.68 167841.00 124471.01 167841.00 127480.67 L 167841.00 133151.50 C 167841.00 135780.99 170502.09 138062.00 173131.50 138062.00 C 175760.91 138062.00 178422.00 135780.99 178422.00 133151.50 L 178422.00 127480.67 C 178422.00 124471.01 175760.91 122221.68 173131.50 122221.68 Z" fill="#FFFFFF" stroke="#FFFFFF" stroke-width="1.5" />
  <path d="M 122886.47 161156.68 C 121555.92 161156.68 120130.33 161631.89 118831.46 162582.30 C 116930.68 164451.44 116930.68 167841.24 118831.46 170122.23 C 123710.14 174652.53 131249.91 177282.00 139169.84 177282.00 C 147089.77 177282.00 155389.86 174652.53 159539.90 170122.23 C 162201.00 168221.41 162201.00 165211.77 160300.22 162582.30 C 159349.83 161631.89 158146.00 161156.68 156815.45 161156.68 C 155484.90 161156.68 154090.99 161631.89 152760.44 162582.30 C 150891.34 164451.44 146361.14 167112.59 139550.00 167112.59 C 133150.70 167112.59 128240.34 164451.44 126371.24 162582.30 C 125420.84 161631.89 124185.34 161156.68 122886.47 161156.68 Z" fill="#FFFFFF" stroke="#FFFFFF" stroke-width="1.5" />
  <path d="M 101091.50 311572.68 C 98081.93 311572.68 95801.00 314202.12 95801.00 316831.57 L 95801.00 350412.43 C 95801.00 353041.88 98081.93 355703.00 101091.50 355703.00 C 103720.91 355703.00 106382.00 353041.88 106382.00 350412.43 L 106382.00 316831.57 C 106382.00 314202.12 103720.91 311572.68 101091.50 311572.68 Z" fill="#FFFFFF" stroke="#FFFFFF" stroke-width="1.5" />
  <path d="M 156530.70 10549.43 C 156530.70 10549.43 156910.86 10549.43 156910.86 10929.59 L 156910.86 34341.09 C 156910.86 39599.96 155041.74 44890.51 152000.47 48660.43 L 140310.56 63359.94 L 139170.08 63359.94 L 127480.17 48660.43 C 124090.42 44890.51 122221.30 39599.96 122221.30 34341.09 L 123330.10 10549.43 Z M 73180.72 99570.14 L 73180.72 110879.89 C 73180.72 114301.32 70551.28 116930.76 67129.84 116930.76 L 61490.81 116930.76 L 61490.81 99570.14 Z M 218401.67 99570.14 L 218401.67 116930.76 L 212350.80 116930.76 C 208961.04 116930.76 206331.60 114301.32 206331.60 110879.89 L 206331.60 99570.14 Z M 50909.70 101090.78 L 50909.70 118831.56 C 44890.51 121841.16 40740.43 127100.03 40360.27 133911.22 C 39599.95 139170.10 41500.75 144840.81 44890.51 148610.73 C 48660.42 152380.65 53950.98 154661.60 59209.85 154661.60 L 62599.61 154661.60 C 63740.09 162581.60 66401.20 170881.75 69790.96 177661.26 L 61870.97 177661.26 L 61870.97 178421.58 C 40360.27 178421.58 22271.01 160680.80 22271.01 138821.62 C 22271.01 120700.68 34341.08 105621.01 50909.70 101090.78 Z M 229331.26 101185.82 C 245361.32 105842.77 257621.46 120827.40 257621.46 138821.62 C 257621.46 160300.64 239880.68 178421.58 218021.51 178421.58 L 209721.36 178421.58 C 213111.12 171230.23 215392.07 163310.24 216881.03 155041.76 L 220270.79 155041.76 C 230471.74 155041.76 239152.05 147470.25 239880.68 138061.30 C 240641.00 133150.91 238771.89 127480.19 235382.13 123710.28 C 233481.33 121841.16 231580.53 120320.52 229331.26 118831.56 L 229331.26 101185.82 Z M 165971.33 20750.38 C 180670.83 26040.93 193121.06 34341.09 202941.85 46411.15 C 213111.12 58481.22 219510.47 73560.89 221791.43 89020.71 L 188590.82 89020.71 C 185961.39 89020.71 183680.43 91650.15 183680.43 94311.26 C 183680.43 97320.86 185961.39 99570.14 188590.82 99570.14 L 194641.70 99570.14 L 194641.70 110879.89 C 194641.70 119940.36 202181.53 127480.19 211242.00 127480.19 L 219890.63 127480.19 C 222171.58 127480.19 224420.86 128240.51 226321.66 130141.31 C 228190.78 132010.43 228951.10 134291.38 228951.10 136920.82 C 228190.78 141070.90 224040.70 144840.81 219510.47 144840.81 L 216881.03 144840.81 L 216881.03 144460.65 C 216881.03 141451.06 214631.75 139170.10 211970.64 139170.10 C 208961.04 139170.10 206711.76 141451.06 206711.76 144460.65 C 207091.92 181431.18 176900.92 211590.51 139550.24 211590.51 C 102611.40 211590.51 72420.40 181431.18 72420.40 144460.65 C 72420.40 141451.06 69790.96 139170.10 67129.84 139170.10 C 64120.25 139170.10 61870.97 141451.06 61870.97 144460.65 L 61870.97 144840.81 L 58481.21 144840.81 C 56200.26 144840.81 53950.98 143700.33 52050.18 141831.22 C 50181.06 139930.42 49800.90 137681.14 49800.90 135400.18 C 50181.06 131250.11 54331.14 127480.19 59209.85 127480.19 L 66749.68 127480.19 C 75429.99 127480.19 82969.82 119940.36 82969.82 110879.89 L 82969.82 99570.14 L 167111.81 99570.14 C 169741.25 99570.14 172370.68 97320.86 172370.68 94311.26 C 172370.68 91650.15 169741.25 89020.71 167111.81 89020.71 L 55820.10 89020.71 C 57720.89 73180.73 64120.25 58481.22 74669.67 46411.15 C 84490.46 34341.09 97320.85 25660.77 111260.03 20750.38 L 111260.03 34341.09 C 111260.03 41880.92 113921.15 49040.59 118451.38 55059.78 L 130141.29 69790.97 C 132010.41 72040.25 135400.16 73941.05 138821.60 73941.05 C 142211.36 73941.05 144840.79 72800.57 147090.07 69790.97 L 159160.14 55059.78 C 163690.37 49420.75 165971.33 41880.92 165971.33 34341.09 L 165971.33 20750.38 Z M 173511.16 214251.62 L 173511.16 251950.79 C 165211.01 261771.58 152760.78 267442.29 139550.24 267442.29 C 126371.37 267442.29 114301.31 261771.58 105621.00 251950.79 L 105621.00 214251.62 C 116170.43 219162.02 127480.17 221791.46 139550.24 221791.46 C 152000.47 221791.46 163310.21 218781.86 173511.16 214251.62 Z M 173511.16 266301.81 L 173511.16 280621.16 C 163310.21 286672.03 152000.47 289681.63 139550.24 289681.63 C 127480.17 289681.63 116170.43 286291.87 105621.00 280621.16 L 105621.00 266301.81 C 115029.95 273841.64 126751.53 277611.56 139550.24 277611.56 C 152380.63 277611.56 163690.37 273461.48 173511.16 266301.81 Z M 122601.46 0.00 C 116930.75 0.00 112400.51 4150.08 112020.35 9440.63 C 94311.25 14699.51 78819.75 24900.45 66749.68 39219.80 C 54331.14 54331.15 46759.63 72040.25 44890.51 91650.15 C 25280.61 98081.18 10929.59 116930.76 10929.59 138821.62 C 10929.59 165971.35 33200.60 188590.85 61110.65 188590.85 L 75049.83 188590.85 L 79199.91 194261.56 L 41120.59 216881.06 C 36970.52 219162.02 33960.92 223660.57 33580.76 228190.81 C 32820.44 233101.20 33960.92 237631.44 36970.52 241401.36 L 47900.11 254611.90 L 31679.96 259522.30 C 12830.39 265161.33 0.00 282521.95 0.00 301751.70 L 0.00 350792.29 C 0.00 353801.88 2629.44 356082.84 5290.55 356082.84 C 8300.15 356082.84 10549.43 353801.88 10549.43 350792.29 L 10549.43 301751.70 C 10549.43 286672.03 20370.22 273461.48 34689.56 269311.41 L 54679.62 263292.21 L 69790.96 282141.80 C 71279.92 284010.91 72420.40 286672.03 72420.40 288921.31 L 72420.40 350031.97 C 72420.40 352661.40 74669.67 354942.36 77330.79 354942.36 C 80340.39 354942.36 82621.35 352661.40 82621.35 350031.97 L 82621.35 289681.63 C 82621.35 284391.07 80720.55 279512.36 78091.11 275742.44 L 44890.51 235002.00 C 44130.19 233481.36 43369.87 231960.73 43369.87 230091.61 C 44130.19 228190.81 44890.51 226701.85 46411.15 225941.53 L 86391.26 201801.40 C 88640.54 204050.67 91650.13 205951.47 94311.25 207820.59 L 94311.25 294592.02 C 94311.25 297601.62 96940.69 299882.58 99570.13 299882.58 C 102611.40 299882.58 104860.68 297601.62 104860.68 294592.02 L 104860.68 292311.06 C 115029.95 297601.62 127100.01 300231.06 138821.60 300231.06 C 150511.51 300231.06 161821.25 297601.62 172750.84 292311.06 L 172750.84 350792.29 C 172750.84 353421.72 175031.80 356082.84 178041.40 356082.84 C 180670.83 356082.84 182951.79 353421.72 182951.79 350792.29 L 182951.79 208200.75 C 185961.39 206331.63 188590.82 204050.67 191251.94 202181.56 L 231232.05 226321.69 C 232340.85 227462.17 233481.33 228570.97 233861.49 230471.77 C 234241.65 232340.89 233861.49 233861.52 232340.85 235382.16 L 199520.41 276471.08 C 196130.65 279860.84 194641.70 285151.39 194641.70 290061.79 L 194641.70 350792.29 C 194641.70 353421.72 197271.13 356082.84 199900.57 356082.84 C 202941.85 356082.84 205191.12 353421.72 205191.12 350792.29 L 205191.12 289681.63 C 205191.12 286672.03 205951.44 284391.07 207440.40 282521.95 L 222551.74 263672.37 L 242921.96 269691.57 C 256861.15 273841.64 267062.09 287052.19 267062.09 302131.85 L 267062.09 351172.45 C 267062.09 354182.04 269311.37 356431.32 271940.81 356431.32 C 274982.08 356431.32 277231.36 354182.04 277231.36 351172.45 L 277231.36 302131.85 C 278752.00 282141.80 265921.61 264401.01 247072.04 259522.30 L 231232.05 254611.90 L 241781.48 241401.36 C 244791.08 237631.44 246311.72 233101.20 245171.24 228190.81 C 244410.92 223660.57 241401.32 219890.66 237631.41 216881.06 L 199520.41 194261.56 L 203670.49 188590.85 L 218021.51 188590.85 C 245171.24 188590.85 267790.73 166351.51 267790.73 138821.62 C 267790.73 116930.76 253851.55 98081.18 233861.49 91650.15 C 232721.01 72040.25 225181.18 54331.15 212350.80 39219.80 C 200660.89 24900.45 184820.91 14699.51 167111.81 9440.63 C 166731.65 4150.08 161821.25 0.00 156150.54 0.00 Z" fill="#FFFFFF" stroke="#FFFFFF" stroke-width="1.5" />
  <path d="M 100330.46 105621.68 C 97700.99 105621.68 95420.00 107871.00 95420.00 110880.66 C 95420.00 113541.83 97700.99 116171.32 100330.46 116171.32 L 112020.54 116171.32 C 114681.69 116171.32 116931.00 113541.83 116931.00 110880.66 C 116931.00 107871.00 114681.69 105621.68 112020.54 105621.68 Z" fill="#FFFFFF" stroke="#FFFFFF" stroke-width="1.5" />
  <path d="M 167460.67 105621.68 C 164831.17 105621.68 162201.68 107871.00 162201.68 110880.66 C 162201.68 113541.83 164831.17 116171.32 167460.67 116171.32 L 178802.33 116171.32 C 181811.99 116171.32 184061.32 113541.83 184061.32 110880.66 C 184061.32 107871.00 181811.99 105621.68 178802.33 105621.68 Z" fill="#FFFFFF" stroke="#FFFFFF" stroke-width="1.5" />
</svg>