<svg xmlns="http://www.w3.org/2000/svg" viewBox="0 0 357387.00 357387.00" width="100%" height="100%">
  <path d="M 103478.44 59873.00 C 83393.80 59873.00 67860.83 75787.92 67860.83 95522.41 C 67860.83 114843.12 84157.71 131140.00 103478.44 131140.00 C 123181.12 131140.00 139096.04 114843.12 139096.04 95522.41 C 139478.00 93230.67 136454.16 90206.83 133780.46 90206.83 L 111053.94 90206.83 C 107648.15 90206.83 105356.40 92466.75 105356.40 95872.54 C 105356.40 99310.17 107648.15 101570.08 111053.94 101570.08 L 126968.87 101570.08 C 124708.95 112551.38 114841.69 120508.84 103478.44 120508.84 C 90205.39 120508.84 78842.13 109527.54 78842.13 95872.54 C 78842.13 82631.33 89823.43 71268.08 103478.44 71268.08 C 109526.11 71268.08 115223.65 73528.00 119393.36 77315.75 C 120666.56 78206.98 122003.41 78684.43 123372.09 78684.43 C 124836.27 78684.43 126332.27 78111.50 127732.78 76933.79 C 129992.70 74673.87 129610.75 71268.08 126968.87 68976.33 C 120539.24 63310.62 112581.77 59873.00 103478.44 59873.00 Z" fill="#FFFFFF" stroke="#FFFFFF" stroke-width="1.5" />
  <path d="M 269090.52 40933.15 C 283095.67 40933.15 293726.86 51914.47 293726.86 65569.50 C 293344.90 79224.53 282363.59 90205.85 269090.52 90205.85 C 255817.46 90205.85 244454.18 79224.53 244454.18 65569.50 C 244454.18 52296.43 255435.50 40933.15 269090.52 40933.15 Z M 269090.52 29951.83 C 249387.82 29951.83 233854.83 46248.74 233854.83 65569.50 C 233854.83 85654.17 249769.78 101187.17 269090.52 101187.17 C 289175.18 101187.17 304708.17 84890.26 304708.17 65569.50 C 304708.17 46248.74 288793.22 29951.83 269090.52 29951.83 Z" fill="#FFFFFF" stroke="#FFFFFF" stroke-width="1.5" />
  <path d="M 269090.64 11745.26 C 303180.55 11745.26 331222.76 39405.51 331222.76 73527.25 C 331222.76 100805.54 289557.32 149314.43 269090.64 170926.99 C 249005.92 149314.43 207308.65 100041.62 207308.65 73527.25 C 207308.65 39055.38 234586.94 11745.26 269090.64 11745.26 Z M 178884.48 11745.26 C 193303.46 11745.26 208072.57 13655.06 222459.72 17442.83 C 206162.77 30715.93 195945.35 50800.65 195945.35 73527.25 C 195945.35 80338.87 197823.32 87564.27 200497.04 95139.81 L 17060.87 222077.76 C 13273.10 208072.57 11395.13 193653.59 11395.13 178884.48 C 11395.13 86418.39 86418.39 11745.26 178884.48 11745.26 Z M 329726.75 108763.04 C 339562.21 130375.59 344877.82 154630.04 344877.82 178884.48 C 346023.70 236114.78 317217.57 286883.60 272496.45 317217.57 L 170545.03 171690.90 L 222841.68 133399.44 C 241430.39 158799.76 263011.11 180762.45 264538.95 182672.25 C 265302.87 183436.17 266798.88 184582.05 268326.72 184582.05 C 269854.56 184582.05 270968.61 183818.13 272114.49 182672.25 C 274024.29 180762.45 310787.91 143648.69 329726.75 108763.04 Z M 162205.57 178502.52 L 263393.07 323265.26 C 255435.58 327434.99 247478.08 331222.76 239520.59 334628.57 L 141006.81 194035.55 L 162205.57 178502.52 Z M 205812.64 105357.23 C 209218.45 111436.76 213006.22 118248.37 217175.94 124296.07 L 102333.38 208072.57 C 99691.49 209950.54 99691.49 214502.23 101951.42 216793.98 C 103001.81 217812.54 104497.82 218417.31 105962.00 218417.31 C 107139.71 218417.31 108317.42 218003.52 109145.00 217144.11 L 131903.43 200497.04 L 228539.25 338416.33 C 212242.30 343731.94 195945.35 346023.70 178884.48 346023.70 C 119394.25 346023.70 67861.51 315307.77 37909.50 268708.68 L 86800.35 233441.06 C 89824.20 231563.09 89824.20 227011.41 87182.31 224751.48 C 86131.92 223701.09 84763.23 223128.15 83394.54 223128.15 C 82280.49 223128.15 81198.28 223510.11 80370.70 224369.52 L 32211.94 259223.35 C 27692.08 251265.85 23904.31 242162.48 20848.64 233441.06 L 205812.64 105357.23 Z M 178502.52 0.00 C 130757.55 0.00 86418.39 18588.71 52296.65 52296.65 C 18588.71 86036.43 0.00 131139.51 0.00 178884.48 C 0.00 226629.45 18588.71 271350.57 52296.65 305472.30 C 85654.47 338798.29 130757.55 357387.00 178502.52 357387.00 C 226629.45 357387.00 270968.61 338798.29 305090.35 305472.30 C 338830.12 271732.53 357387.00 226629.45 357387.00 178884.48 C 357387.00 150078.35 350193.42 121654.18 336920.32 95871.90 C 340326.13 87914.40 342235.93 80338.87 342235.93 73527.25 C 342235.93 33357.82 309260.07 0.00 268708.68 0.00 C 255817.54 0.00 244072.28 3405.81 234204.98 9103.37 C 216030.06 3405.81 197473.19 0.00 178502.52 0.00 Z" fill="#FFFFFF" stroke="#FFFFFF" stroke-width="1.5" />
</svg>