<svg xmlns="http://www.w3.org/2000/svg" viewBox="0 0 261075.00 347815.00" width="100%" height="100%">
  <path d="M 44161.94 148262.52 C 46791.38 149783.16 49832.66 150163.32 52842.26 150163.32 L 56612.19 150163.32 C 58861.47 168632.78 68302.11 184472.79 81132.52 195782.56 C 78186.28 196542.88 75525.15 196891.36 73117.47 196891.36 C 60096.99 196891.36 54711.39 187387.35 54711.39 186753.75 C 53602.58 184852.95 51701.78 183712.47 49832.66 183712.47 C 48977.30 183807.51 48153.62 183839.19 47361.62 183839.19 C 35576.66 183839.19 30856.33 176204.30 29082.25 170913.74 C 36241.94 168632.78 44161.94 162613.57 44161.94 149403.00 L 44161.94 148262.52 Z M 217673.38 149403.00 L 217673.38 150163.32 C 218433.70 162962.05 226353.70 169012.94 233513.39 171642.38 C 231707.63 176331.02 226797.22 184155.99 214473.70 184155.99 C 213903.46 184155.99 213333.22 184124.31 212762.98 184092.63 C 210513.70 184092.63 208993.06 185233.11 207852.58 187102.23 C 207535.78 187450.71 201706.65 197588.32 187609.05 197588.32 C 185613.21 197588.32 183427.28 197398.24 181082.96 196923.04 C 194293.53 185233.11 203322.33 169012.94 205603.29 151272.12 L 209373.22 151272.12 C 212002.66 151272.12 215392.42 150163.32 217673.38 149403.00 Z M 130901.82 8712.01 C 147502.15 8712.01 158463.43 12101.77 162613.51 18881.30 C 164862.80 22651.22 169773.20 24932.18 174303.44 25692.50 C 199552.41 28702.10 217673.38 49452.52 217673.38 74353.02 L 217673.38 115061.85 C 215392.42 113572.89 212002.66 113192.73 209373.22 113192.73 L 206363.61 113192.73 L 206363.61 107522.01 C 206363.61 90541.51 197683.29 83381.83 188242.65 75841.98 C 184472.72 72832.38 180702.80 69822.78 176932.88 66052.85 C 175982.48 65102.45 174683.60 64627.25 173353.04 64627.25 C 172022.48 64627.25 170691.92 65102.45 169773.20 66052.85 C 167872.40 67921.97 167872.40 70931.58 169773.20 72832.38 C 173923.28 77362.62 178073.36 80372.22 181843.28 83761.99 C 190872.09 90921.67 196542.81 95451.92 196542.81 107522.01 L 196542.81 118103.14 C 196542.81 119972.26 197683.29 121492.90 198823.77 122633.38 C 200312.73 123362.02 200312.73 123362.02 205603.29 123362.02 L 209753.38 123362.02 C 214663.78 123362.02 218433.70 127131.94 218433.70 132042.35 C 218433.70 136572.59 214663.78 140342.51 209753.38 140342.51 L 207092.26 140342.51 L 207092.26 139962.35 C 207092.26 136952.75 204462.81 134703.47 201833.37 134703.47 C 198823.77 134703.47 196542.81 136952.75 196542.81 139962.35 C 196542.81 175792.46 167492.24 205223.21 130901.82 205223.21 C 130458.30 205223.21 130014.78 205223.21 129571.26 205223.21 C 94374.76 205223.21 66052.83 175729.10 66052.83 140342.51 C 66052.83 137713.07 63771.87 135051.95 60762.27 135051.95 C 58101.15 135051.95 55471.71 137713.07 55471.71 140342.51 L 55471.71 140722.67 L 52842.26 140722.67 C 47931.86 140722.67 44161.94 136952.75 44161.94 132422.51 C 44161.94 127512.10 47931.86 123742.18 52842.26 123742.18 L 55471.71 123742.18 C 64532.19 123742.18 71691.87 116962.65 71691.87 107902.17 C 71691.87 102263.12 74321.31 97352.72 79231.72 93202.64 L 79611.88 93582.80 C 80752.36 94691.60 81892.84 95071.76 83381.80 95071.76 C 84902.44 95071.76 85662.76 94691.60 86771.56 93582.80 C 88672.36 91681.99 89052.52 89432.71 87531.88 87151.75 C 97732.84 81512.71 111291.89 77362.62 124502.46 72832.38 C 147121.99 65292.53 168632.72 58481.33 174303.44 44161.96 C 175412.24 41532.51 174303.44 38491.23 171642.32 37762.59 C 170850.32 37445.79 170090.00 37319.07 169393.04 37319.07 C 167365.52 37319.07 165686.48 38427.87 164862.80 40392.03 C 161092.87 50212.84 141102.78 56992.37 121112.70 63011.57 C 107141.81 67921.97 92062.12 72452.22 80752.36 79611.90 L 66052.83 64152.05 C 64912.35 63043.25 63264.99 62314.61 61680.99 62314.61 C 60635.55 62314.61 59621.79 62631.41 58861.47 63391.73 C 56992.35 65292.53 56612.19 68682.30 58481.31 70551.42 L 72072.03 85282.63 C 65672.67 90921.67 61142.43 98113.04 61142.43 107522.01 C 61142.43 110563.29 58861.47 113192.73 55471.71 113192.73 L 52842.26 113192.73 C 49832.66 113192.73 46791.38 113953.05 44161.94 115061.85 L 44161.94 85282.63 C 44161.94 56612.21 60382.11 38142.75 73972.83 28321.94 C 90541.48 15871.69 111672.05 8712.01 130901.82 8712.01 Z M 158811.91 211622.57 L 158811.91 238423.87 C 158811.91 241813.63 158463.43 244443.08 157322.95 247452.68 C 156562.63 250113.80 158083.27 253123.40 160712.71 253883.72 C 161092.87 253883.72 161853.19 254644.04 162613.51 254644.04 C 164482.64 254644.04 166731.92 253123.40 167492.24 251254.28 C 168632.72 247104.20 169773.20 243334.28 169773.20 238423.87 L 169773.20 229363.38 L 183332.24 234273.79 C 185613.21 235034.11 187102.17 236903.23 187102.17 239532.67 C 187482.33 257653.65 183332.24 273493.66 179182.16 282934.31 C 176362.64 289238.63 170311.76 293198.64 163785.68 293198.64 C 162518.47 293198.64 161251.27 293040.24 159952.39 292723.44 L 132422.46 285943.91 L 130173.18 285943.91 L 102611.57 292723.44 C 101281.01 293040.24 99918.77 293198.64 98588.21 293198.64 C 92125.48 293198.64 86201.32 289492.07 83381.80 282934.31 C 79611.88 273493.66 75081.63 257653.65 76222.12 238804.03 C 76222.12 236523.07 78122.92 234653.95 79992.04 233893.63 L 93962.92 228983.22 L 93962.92 238043.71 C 93962.92 258794.13 110911.73 275742.94 131662.14 275742.94 C 139201.98 275742.94 146013.19 273493.66 152412.55 269723.74 C 154661.83 268203.10 155041.99 264813.33 153553.03 262564.05 C 152824.39 261106.77 151145.35 260251.41 149434.63 260251.41 C 148515.91 260251.41 147565.51 260504.85 146741.83 261043.41 C 141863.11 264053.01 136572.54 265953.81 131662.14 265953.81 C 116582.45 265953.81 104132.21 253503.56 104132.21 238423.87 L 104132.21 211622.57 C 112812.53 215044.01 122253.18 216913.13 131662.14 216913.13 C 141102.78 216913.13 150543.43 215044.01 158811.91 211622.57 Z M 130173.18 31.68 C 108282.29 31.68 84902.44 7951.69 66781.47 21162.26 C 51321.62 32472.03 32852.18 53222.44 32852.18 86042.95 L 32852.18 149783.16 C 32852.18 161473.09 23411.53 162613.57 21542.41 162613.57 C 20401.93 162613.57 18881.29 162962.05 17772.49 164482.69 C 17012.17 165243.01 16632.01 166763.65 16632.01 168252.62 C 16632.01 168632.78 19261.45 194293.60 45682.58 194673.76 C 47551.70 196923.04 50561.30 200312.80 55091.55 202973.92 C 59368.35 205571.69 65545.95 208169.45 73656.03 208169.45 C 78471.40 208169.45 83983.72 207250.73 90193.00 204843.04 C 90921.64 205223.21 91301.80 205983.53 92442.28 206363.69 L 92442.28 218433.78 L 75461.79 224072.82 C 69442.59 226733.94 64912.35 231992.83 64532.19 238423.87 L 64532.19 239532.67 L 24932.17 253503.56 C 9820.80 258794.13 31.68 272733.34 31.68 288953.51 L 31.68 341764.12 C 31.68 344393.56 2280.96 347054.68 5322.24 347054.68 C 7951.68 347054.68 10200.96 344393.56 10200.96 341764.12 L 10200.96 288953.51 C 10200.96 285563.75 10961.29 281793.83 12101.77 279164.38 L 38111.06 301023.60 C 41912.66 304413.37 43781.78 308563.45 43781.78 313854.01 L 43781.78 341764.12 C 43781.78 344393.56 46031.06 347054.68 49072.34 347054.68 C 51701.78 347054.68 54331.22 344393.56 54331.22 341764.12 L 54331.22 313854.01 C 54331.22 305934.01 50941.46 298774.32 44922.26 293483.76 L 17772.49 270484.06 C 20782.09 267094.30 24552.01 264813.33 28702.09 263324.37 L 64532.19 250874.12 C 64912.35 266714.13 69062.43 279544.55 72452.19 287813.03 C 76855.72 298235.76 86803.24 304413.37 97416.04 304413.37 C 99506.93 304413.37 101629.49 304159.92 103752.05 303684.72 L 129412.86 296873.52 L 155422.15 303684.72 C 157703.11 304033.20 159952.39 304413.37 162233.35 304413.37 C 172402.64 304413.37 182223.44 298394.16 186753.69 287813.03 C 190143.45 279544.55 194293.53 266714.13 194673.69 251254.28 L 230503.79 264053.01 C 234653.87 265193.49 238423.79 268203.10 241433.39 270864.22 L 214283.62 294244.08 C 208232.74 299154.48 204842.97 306314.17 204842.97 314234.17 L 204842.97 342144.28 C 204842.97 345153.88 207472.42 347434.84 210133.54 347434.84 C 213143.14 347434.84 215392.42 345153.88 215392.42 342144.28 L 215392.42 314234.17 C 215392.42 309703.93 217293.22 304793.53 221063.14 301783.92 L 246343.79 279893.03 C 247832.75 283314.47 248212.91 286704.23 248212.91 289713.83 L 248212.91 342524.44 C 248212.91 345534.04 250874.04 347815.00 253503.48 347815.00 C 256513.08 347815.00 258794.04 345534.04 258794.04 342524.44 L 258794.04 289713.83 C 261043.32 272353.18 250874.04 257653.65 235762.67 252743.24 L 196542.81 238804.03 L 196542.81 238043.71 C 196162.65 231264.19 192012.57 225593.46 185613.21 223692.66 L 168632.72 218053.62 L 168632.72 205983.53 C 169773.20 205223.21 170153.36 204843.04 171262.16 204462.88 C 177313.04 206743.85 182952.08 207852.65 187482.33 207852.65 C 195782.49 207852.65 201833.37 205603.37 205603.29 202973.92 C 210133.54 200312.80 213143.14 196923.04 215012.26 194673.76 C 241433.39 194293.60 244062.83 168632.78 244062.83 168252.62 C 244062.83 166763.65 243682.67 165243.01 242954.03 164482.69 C 241813.55 163342.21 240292.91 162613.57 239152.43 162613.57 C 239152.43 162613.57 236142.83 162613.57 233513.39 160712.77 C 229743.47 158843.65 227842.66 155042.04 227842.66 149783.16 L 227842.66 75461.82 C 227842.66 45302.44 205223.13 19641.62 175032.08 16251.85 C 173162.96 16251.85 171262.16 15491.53 170153.36 14002.57 C 164102.48 4561.92 150543.43 31.68 130173.18 31.68 Z" fill="#FFFFFF" stroke="#FFFFFF" stroke-width="1.5" />
  <path d="M 115251.69 162708.68 C 113952.80 162708.68 112622.23 163152.19 111671.82 164102.56 C 109802.68 166003.30 109802.68 169012.80 111671.82 170913.54 C 115821.94 175411.96 123361.85 178073.00 131662.08 178073.00 C 139582.15 178073.00 147122.06 175792.11 151272.18 170913.54 C 153173.00 169012.80 153173.00 166003.30 151272.18 164102.56 C 150353.45 163152.19 149022.88 162708.68 147692.31 162708.68 C 146393.42 162708.68 145062.85 163152.19 144112.44 164102.56 C 142243.30 166003.30 138093.18 167492.21 131662.08 167492.21 C 124882.50 167492.21 120732.38 165243.00 118831.56 164102.56 C 117912.84 163152.19 116582.26 162708.68 115251.69 162708.68 Z" fill="#FFFFFF" stroke="#FFFFFF" stroke-width="1.5" />
  <path d="M 98841.57 124502.00 C 96212.04 124502.00 93962.68 126751.35 93962.68 129412.55 L 93962.68 134703.28 C 93962.68 137712.97 96212.04 139962.32 98841.57 139962.32 C 101882.96 139962.32 104132.32 137712.97 104132.32 134703.28 L 104132.32 129412.55 C 103752.15 126751.35 101882.96 124502.00 98841.57 124502.00 Z" fill="#FFFFFF" stroke="#FFFFFF" stroke-width="1.5" />
  <path d="M 163722.58 124502.00 C 160712.97 124502.00 158463.68 126751.35 158463.68 129412.55 L 158463.68 134703.28 C 158463.68 137712.97 160712.97 139962.32 163722.58 139962.32 C 166383.71 139962.32 168633.00 137712.97 168633.00 134703.28 L 168633.00 129412.55 C 168633.00 126751.35 166383.71 124502.00 163722.58 124502.00 Z" fill="#FFFFFF" stroke="#FFFFFF" stroke-width="1.5" />
  <path d="M 93202.02 108282.00 C 90540.93 108282.00 88291.68 110562.93 88291.68 113572.50 C 88291.68 116201.91 90540.93 118831.32 93202.02 118831.32 L 104131.50 118831.32 C 106760.91 118831.32 109422.00 116201.91 109422.00 113572.50 C 109422.00 110182.78 107141.07 108282.00 104131.50 108282.00 Z" fill="#FFFFFF" stroke="#FFFFFF" stroke-width="1.5" />
  <path d="M 158463.18 108282.00 C 155421.93 108282.00 153172.68 110562.93 153172.68 113572.50 C 153172.68 116201.91 155421.93 118831.32 158463.18 118831.32 L 169392.66 118831.32 C 172022.07 118831.32 174303.00 116201.91 174303.00 113572.50 C 174303.00 110182.78 172022.07 108282.00 169392.66 108282.00 Z" fill="#FFFFFF" stroke="#FFFFFF" stroke-width="1.5" />
</svg>